<svg width="22" height="22" viewBox="0 0 22 22" fill="none" xmlns="http://www.w3.org/2000/svg">
<g clip-path="url(#clip0_167_6)">
<path d="M0.940585 0.940585C1.07989 0.800925 1.24538 0.69012 1.42758 0.614518C1.60977 0.538915 1.80509 0.5 2.00235 0.5C2.19961 0.5 2.39493 0.538915 2.57713 0.614518C2.75933 0.69012 2.92482 0.800925 3.06412 0.940585L11.0004 8.87986L18.9367 0.940585C19.0761 0.801151 19.2416 0.690546 19.4238 0.615085C19.606 0.539624 19.8012 0.500785 19.9984 0.500785C20.1956 0.500785 20.3909 0.539624 20.5731 0.615085C20.7552 0.690546 20.9208 0.801151 21.0602 0.940585C21.1996 1.08002 21.3102 1.24555 21.3857 1.42773C21.4612 1.60991 21.5 1.80516 21.5 2.00235C21.5 2.19954 21.4612 2.3948 21.3857 2.57698C21.3102 2.75916 21.1996 2.92469 21.0602 3.06412L13.1209 11.0004L21.0602 18.9367C21.1996 19.0761 21.3102 19.2416 21.3857 19.4238C21.4612 19.606 21.5 19.8012 21.5 19.9984C21.5 20.1956 21.4612 20.3909 21.3857 20.5731C21.3102 20.7552 21.1996 20.9208 21.0602 21.0602C20.9208 21.1996 20.7552 21.3102 20.5731 21.3857C20.3909 21.4612 20.1956 21.5 19.9984 21.5C19.8012 21.5 19.606 21.4612 19.4238 21.3857C19.2416 21.3102 19.0761 21.1996 18.9367 21.0602L11.0004 13.1209L3.06412 21.0602C2.92469 21.1996 2.75916 21.3102 2.57698 21.3857C2.3948 21.4612 2.19954 21.5 2.00235 21.5C1.80516 21.5 1.60991 21.4612 1.42773 21.3857C1.24555 21.3102 1.08002 21.1996 0.940585 21.0602C0.801151 20.9208 0.690546 20.7552 0.615085 20.5731C0.539624 20.3909 0.500785 20.1956 0.500785 19.9984C0.500785 19.8012 0.539624 19.606 0.615085 19.4238C0.690546 19.2416 0.801151 19.0761 0.940585 18.9367L8.87986 11.0004L0.940585 3.06412C0.800925 2.92482 0.69012 2.75933 0.614518 2.57713C0.538915 2.39493 0.5 2.19961 0.5 2.00235C0.5 1.80509 0.538915 1.60977 0.614518 1.42758C0.69012 1.24538 0.800925 1.07989 0.940585 0.940585Z" fill="#AC00FD"/>
</g>
<defs>
<clipPath id="clip0_167_6">
<rect width="21" height="21" fill="white" transform="translate(0.5 0.5)"/>
</clipPath>
</defs>
</svg>

