<svg width="148" height="133" viewBox="0 0 148 133" fill="none" xmlns="http://www.w3.org/2000/svg">
<path d="M29.801 1.88344L1.30097 34.8834C-0.426305 36.8834 5.80097 75.3834 6.80097 79.8834C7.80097 84.3834 28.301 101.883 32.301 105.383C36.301 108.883 69.801 130.383 72.301 131.383C74.301 132.183 76.801 131.717 77.801 131.383C89.801 123.383 114.501 106.983 117.301 105.383C120.101 103.783 134.801 87.7168 141.801 79.8834C142.968 71.2168 145.501 52.2834 146.301 45.8834C147.101 39.4834 146.634 34.5501 146.301 32.8834C137.634 23.2168 119.901 3.48344 118.301 1.88344C116.701 0.283443 113.968 1.21678 112.801 1.88344C101.468 7.55011 78.301 19.0834 76.301 19.8834C74.301 20.6834 72.801 20.2168 72.301 19.8834C61.301 14.5501 38.601 3.48344 35.801 1.88344C33.001 0.283443 30.6343 1.21678 29.801 1.88344Z" fill="#D9D9D9" stroke="black"/>
<path d="M26.801 20.3834L14.801 34.3834H24.801L26.801 20.3834Z" fill="url(#paint0_linear_7_10)"/>
<path d="M31.301 34.3834L34.301 12.3834L61.801 25.8834L31.301 34.3834Z" fill="url(#paint1_linear_7_10)"/>
<path d="M71.301 29.8834L34.301 39.8834L71.301 70.8834V29.8834Z" fill="url(#paint2_linear_7_10)"/>
<path d="M22.801 39.8834H10.801L14.801 62.3834L22.801 39.8834Z" fill="url(#paint3_linear_7_10)"/>
<path d="M25.801 51.3834L14.801 75.8834L31.301 90.8834L25.801 51.3834Z" fill="url(#paint4_linear_7_10)"/>
<path d="M31.301 45.8834L37.801 96.3834L69.301 77.3834L31.301 45.8834Z" fill="url(#paint5_linear_7_10)"/>
<path d="M43.301 101.383L71.301 83.3834V119.883L43.301 101.383Z" fill="url(#paint6_linear_7_10)"/>
<path d="M77.801 119.883V83.3834L104.801 101.383L77.801 119.883Z" fill="url(#paint7_linear_7_10)"/>
<path d="M117.301 45.8834L79.301 77.3834L110.801 96.3834L117.301 45.8834Z" fill="url(#paint8_linear_7_10)"/>
<path d="M77.801 29.8834V70.8834L114.301 39.8834L77.801 29.8834Z" fill="url(#paint9_linear_7_10)"/>
<path d="M114.301 12.3834L86.301 25.8834L118.301 34.3834L114.301 12.3834Z" fill="url(#paint10_linear_7_10)"/>
<path d="M123.801 34.3834L121.801 20.3834L134.801 34.3834H123.801Z" fill="url(#paint11_linear_7_10)"/>
<path d="M137.301 39.8834H125.301L134.801 62.3834L137.301 39.8834Z" fill="url(#paint12_linear_7_10)"/>
<path d="M117.301 90.8834L122.801 51.3834L133.301 75.8834L117.301 90.8834Z" fill="url(#paint13_linear_7_10)"/>
<path d="M26.801 20.3834L14.801 34.3834H24.801L26.801 20.3834Z" stroke="black"/>
<path d="M31.301 34.3834L34.301 12.3834L61.801 25.8834L31.301 34.3834Z" stroke="black"/>
<path d="M71.301 29.8834L34.301 39.8834L71.301 70.8834V29.8834Z" stroke="black"/>
<path d="M22.801 39.8834H10.801L14.801 62.3834L22.801 39.8834Z" stroke="black"/>
<path d="M25.801 51.3834L14.801 75.8834L31.301 90.8834L25.801 51.3834Z" stroke="black"/>
<path d="M31.301 45.8834L37.801 96.3834L69.301 77.3834L31.301 45.8834Z" stroke="black"/>
<path d="M43.301 101.383L71.301 83.3834V119.883L43.301 101.383Z" stroke="black"/>
<path d="M77.801 119.883V83.3834L104.801 101.383L77.801 119.883Z" stroke="black"/>
<path d="M117.301 45.8834L79.301 77.3834L110.801 96.3834L117.301 45.8834Z" stroke="black"/>
<path d="M77.801 29.8834V70.8834L114.301 39.8834L77.801 29.8834Z" stroke="black"/>
<path d="M114.301 12.3834L86.301 25.8834L118.301 34.3834L114.301 12.3834Z" stroke="black"/>
<path d="M123.801 34.3834L121.801 20.3834L134.801 34.3834H123.801Z" stroke="black"/>
<path d="M137.301 39.8834H125.301L134.801 62.3834L137.301 39.8834Z" stroke="black"/>
<path d="M117.301 90.8834L122.801 51.3834L133.301 75.8834L117.301 90.8834Z" stroke="black"/>
<defs>
<linearGradient id="paint0_linear_7_10" x1="74.051" y1="12.3834" x2="74.051" y2="119.883" gradientUnits="userSpaceOnUse">
<stop stop-color="#FF4040"/>
<stop offset="1" stop-color="#AC00FD"/>
</linearGradient>
<linearGradient id="paint1_linear_7_10" x1="74.051" y1="12.3834" x2="74.051" y2="119.883" gradientUnits="userSpaceOnUse">
<stop stop-color="#FF4040"/>
<stop offset="1" stop-color="#AC00FD"/>
</linearGradient>
<linearGradient id="paint2_linear_7_10" x1="74.051" y1="12.3834" x2="74.051" y2="119.883" gradientUnits="userSpaceOnUse">
<stop stop-color="#FF4040"/>
<stop offset="1" stop-color="#AC00FD"/>
</linearGradient>
<linearGradient id="paint3_linear_7_10" x1="74.051" y1="12.3834" x2="74.051" y2="119.883" gradientUnits="userSpaceOnUse">
<stop stop-color="#FF4040"/>
<stop offset="1" stop-color="#AC00FD"/>
</linearGradient>
<linearGradient id="paint4_linear_7_10" x1="74.051" y1="12.3834" x2="74.051" y2="119.883" gradientUnits="userSpaceOnUse">
<stop stop-color="#FF4040"/>
<stop offset="1" stop-color="#AC00FD"/>
</linearGradient>
<linearGradient id="paint5_linear_7_10" x1="74.051" y1="12.3834" x2="74.051" y2="119.883" gradientUnits="userSpaceOnUse">
<stop stop-color="#FF4040"/>
<stop offset="1" stop-color="#AC00FD"/>
</linearGradient>
<linearGradient id="paint6_linear_7_10" x1="74.051" y1="12.3834" x2="74.051" y2="119.883" gradientUnits="userSpaceOnUse">
<stop stop-color="#FF4040"/>
<stop offset="1" stop-color="#AC00FD"/>
</linearGradient>
<linearGradient id="paint7_linear_7_10" x1="74.051" y1="12.3834" x2="74.051" y2="119.883" gradientUnits="userSpaceOnUse">
<stop stop-color="#FF4040"/>
<stop offset="1" stop-color="#AC00FD"/>
</linearGradient>
<linearGradient id="paint8_linear_7_10" x1="74.051" y1="12.3834" x2="74.051" y2="119.883" gradientUnits="userSpaceOnUse">
<stop stop-color="#FF4040"/>
<stop offset="1" stop-color="#AC00FD"/>
</linearGradient>
<linearGradient id="paint9_linear_7_10" x1="74.051" y1="12.3834" x2="74.051" y2="119.883" gradientUnits="userSpaceOnUse">
<stop stop-color="#FF4040"/>
<stop offset="1" stop-color="#AC00FD"/>
</linearGradient>
<linearGradient id="paint10_linear_7_10" x1="74.051" y1="12.3834" x2="74.051" y2="119.883" gradientUnits="userSpaceOnUse">
<stop stop-color="#FF4040"/>
<stop offset="1" stop-color="#AC00FD"/>
</linearGradient>
<linearGradient id="paint11_linear_7_10" x1="74.051" y1="12.3834" x2="74.051" y2="119.883" gradientUnits="userSpaceOnUse">
<stop stop-color="#FF4040"/>
<stop offset="1" stop-color="#AC00FD"/>
</linearGradient>
<linearGradient id="paint12_linear_7_10" x1="74.051" y1="12.3834" x2="74.051" y2="119.883" gradientUnits="userSpaceOnUse">
<stop stop-color="#FF4040"/>
<stop offset="1" stop-color="#AC00FD"/>
</linearGradient>
<linearGradient id="paint13_linear_7_10" x1="74.051" y1="12.3834" x2="74.051" y2="119.883" gradientUnits="userSpaceOnUse">
<stop stop-color="#FF4040"/>
<stop offset="1" stop-color="#AC00FD"/>
</linearGradient>
</defs>
</svg>
